<?xml version="1.0" encoding="UTF-8"?>
<!DOCTYPE svg PUBLIC "-//W3C//DTD SVG 1.1//EN" "http://www.w3.org/Graphics/SVG/1.1/DTD/svg11.dtd">
<!-- Creator: CorelDRAW X6 -->
<svg xmlns="http://www.w3.org/2000/svg" xml:space="preserve" width="2.69444in" height="2.69444in" version="1.1" style="shape-rendering:geometricPrecision; text-rendering:geometricPrecision; image-rendering:optimizeQuality; fill-rule:evenodd; clip-rule:evenodd"
viewBox="0 0 2694 2694"
 xmlns:xlink="http://www.w3.org/1999/xlink">
 <defs>
  <style type="text/css">
   <![CDATA[
    .fil0 {fill:#FEFEFE}
    .fil1 {fill:#02536C}
    .fil2 {fill:#C67E0B}
   ]]>
  </style>
 </defs>
 <g id="Layer_x0020_1">
  <metadata id="CorelCorpID_0Corel-Layer"/>
  <polygon class="fil0" points="4,2687 2681,2687 2681,9 4,9 "/>
  <path class="fil1" d="M122 1790l81 0 0 -319 126 278c14,33 35,46 74,46 40,0 59,-12 74,-46l125 -278 0 319 81 0 0 -319c0,-31 -12,-46 -38,-54 -61,-19 -102,-2 -121,39l-123 275 -119 -275c-18,-42 -59,-58 -121,-39 -25,8 -38,23 -38,54l0 319z"/>
  <path class="fil1" d="M749 1531l81 0 0 175c-1,10 3,32 47,33 23,1 175,0 176,0l0 -209 81 0c0,0 0,286 0,287 0,71 -87,86 -128,87l-255 0 0 -54c1,0 255,0 256,0 52,-6 46,-32 46,-40l0 -21 -172 0c-80,-1 -131,-36 -132,-76 0,-4 2,-180 0,-181z"/>
  <path class="fil1" d="M2491 1327c-50,-1 -88,4 -120,17 -9,4 -24,4 -25,15 5,5 6,13 10,20 7,12 20,29 32,38 13,10 26,20 40,29 24,15 51,24 75,38 14,9 27,20 41,29 7,5 11,13 20,16 0,-1 0,-1 0,-2 -4,-6 -6,-14 -10,-20 -6,-6 -12,-12 -19,-18 -18,-24 -40,-45 -64,-63 -20,-14 -63,-32 -71,-55 0,0 -1,-1 -1,-1 14,-1 30,-6 43,-10 21,-6 40,-4 62,-10 10,-2 20,-6 30,-9 0,-2 0,-4 0,-6 -11,-11 -19,-26 -31,-37 -32,-27 -66,-54 -102,-76 -19,-12 -44,-20 -64,-31 -7,-4 -20,-6 -24,-12 -11,-14 -17,-32 -25,-48 -18,-34 -35,-72 -51,-108 -11,-24 -18,-48 -32,-71 -64,-105 -133,-169 -240,-232 -23,-13 -50,-19 -79,-25 -15,-1 -31,-2 -46,-2 -10,-4 -20,-16 -29,-22 -35,-22 -126,-71 -152,-7 -17,40 25,80 39,100 11,14 24,30 32,46 4,11 6,22 10,33 10,27 19,58 32,83 7,13 14,27 23,38 5,7 14,10 16,21 -9,12 -9,31 -14,46 -22,70 -14,157 18,208 10,15 33,50 65,37 28,-11 22,-46 30,-77 2,-7 1,-12 4,-17 0,1 0,1 0,1 9,17 17,34 25,51 19,30 53,62 81,83 15,11 27,30 45,37 0,-1 0,-1 0,-2 -1,0 -1,0 -1,0 -4,-6 -9,-8 -14,-12 -11,-11 -24,-25 -32,-37 -26,-35 -49,-73 -69,-113 -10,-19 -19,-40 -27,-59 -4,-7 -4,-19 -10,-22 -9,14 -23,25 -30,42 -12,27 -13,59 -17,94 -2,1 -1,0 -2,1 -20,-5 -27,-25 -34,-43 -19,-44 -22,-115 -6,-165 4,-13 23,-54 15,-66 -4,-12 -16,-19 -23,-28 -8,-12 -17,-27 -22,-40 -15,-35 -22,-73 -38,-108 -7,-16 -20,-33 -31,-48 -12,-17 -25,-29 -34,-48 -3,-7 -7,-18 -2,-25 1,-5 4,-7 9,-8 8,-7 31,2 39,6 23,9 42,18 61,31 9,6 18,18 29,21 4,0 9,0 13,0 20,4 42,1 61,7 33,11 63,26 89,43 81,51 148,125 193,212 7,14 11,27 17,42 13,30 29,61 42,91 13,29 25,59 44,83 9,13 46,20 63,27 12,6 32,11 43,17 21,13 42,28 62,42 10,7 41,23 43,35z"/>
  <path class="fil1" d="M1859 789c-11,0 -18,1 -25,3 0,0 0,1 0,1 1,0 1,0 1,0 5,10 14,17 20,25 5,10 9,20 14,30 1,-1 1,-1 1,-1 9,-6 13,-16 13,-31 -4,-4 -4,-9 -7,-13 -4,-6 -12,-9 -17,-14z"/>
  <path class="fil2" d="M1197 1790l233 0c27,0 53,-6 74,-15 35,-16 52,-38 52,-66l0 -59c0,-23 -19,-45 -58,-59 -20,-7 -45,-12 -69,-12l-98 0c-33,0 -48,-10 -53,-32 -1,-2 -1,-5 -1,-7l0 -37c0,-2 0,-4 1,-7 4,-17 13,-21 42,-24 2,0 6,0 7,0l231 0 0 -54 -227 0c-33,0 -50,2 -66,7 -48,15 -69,38 -69,80l0 47c0,37 41,68 110,75 7,1 15,1 24,1l84 0c3,0 6,0 9,1 25,2 37,7 44,16 5,5 6,9 6,15l0 47c0,6 -4,13 -11,19 -7,6 -19,11 -35,11 -3,0 -5,1 -8,1l-224 0 0 54z"/>
  <path class="fil2" d="M2061 1697c0,55 42,86 125,92 8,1 15,1 24,1l211 0 0 -54 -213 0c-47,0 -65,-12 -65,-40l0 -279 -81 0 0 279z"/>
  <path class="fil2" d="M1608 1699l0 -192c0,-49 35,-79 102,-88 7,-1 15,-1 22,-1l154 0c8,0 15,1 23,1 68,9 102,39 102,88l0 192c0,40 -14,61 -48,75l79 72 -94 0 -64 -58 -65 4 -87 0c-14,0 -30,-2 -47,-6 -51,-14 -77,-42 -77,-86zm87 -4c0,2 1,5 2,8 4,22 25,35 58,35l73 0 -67 -61 94 0 59 53c11,-6 18,-15 20,-26 1,-2 1,-6 1,-8l0 -184c0,-2 0,-5 -1,-7 -4,-21 -25,-33 -57,-33l-122 0c-36,0 -60,15 -60,40l0 183z"/>
  <path class="fil2" d="M2457 1791l12 0 0 -45 15 0 0 -9 -43 0 0 9 16 0 0 45zm90 0l11 0 0 -55 -17 0 -14 37 -15 -37 -16 0 0 55 11 0 0 -42 1 0 15 42 8 0 16 -42 0 42z"/>
 </g>
</svg>
